<?xml version="1.0" standalone="no"?>
<svg onload="onLoad(evt);" width="250" height="315" viewport="0,0,250,315" xmlns:xlink="http://www.w3.org/1999/xlink" xmlns="http://www.w3.org/2000/svg" version="1.1">

  		<script  xlink:href="numbers.js" language="javascript"/>

	<defs>
      		<linearGradient id="edgeGradient" x2="100%" y2="100%" >
        		<stop offset="0%" stop-color="#2db" />
        		<stop offset="100%" stop-color="#176" />
      		</linearGradient>
      		<radialGradient id="tileGradient" cx="50%" cy="50%" r="100%">
        		<stop offset="0%" stop-color="#2db" />
        		<stop offset="100%" stop-color="#2b9" />
      		</radialGradient>
      		<linearGradient id="buttonGradient" x2="0%" y2="100%" >
        		<stop offset="0%" stop-color="#2db" />
        		<stop offset="100%" stop-color="#176" />
      		</linearGradient>
<!-- -->
	</defs>

	<rect rx="10" ry="10" width="250" height="315" style="fill:url(#edgeGradient); stroke:none" />
	<rect x="10" y="10" rx="10" ry="10" width="230" height="295" style="fill:#18ccaa; stroke:none" />
	
	<a onmousedown="tile_click(evt);" display="none" id="temp_tile" >
		<rect x="25" y="25" rx="10" ry="10" width="50" height="50" style="stroke:none; fill:url(#edgeGradient);" />
		<rect x="28" y="28" rx="8" ry="8" width="42" height="42" style="stroke:none; fill:url(#tileGradient);" />
	</a>

	<rect id="frame" x="25" y="25" width="200" height="200" style="fill:#3ec; stroke:#176; stroke-width:1"/>
	
	<g id="container" />
	
	<g id="win_message" display="none" >
		<rect x="25" y="25" width="200" height="200" style="opacity:0.25; fill:black; stroke:#176; stroke-width:1"/>
		<text x="125" y="137" style="text-anchor:middle; font-size:40; font-family:Comic Sans MS;" >You win!</text>
	</g>

	<rect id="button_shadow1" x="24" y="249" rx="10" ry="10" width="201" height="31" style="stroke:none; fill:#acc;" />
	<rect id="button_shadow2" x="26" y="251" rx="10" ry="10" width="201" height="31" style="stroke:none; fill:#176;" />
	<a onmousedown="PressReset();" onmouseup="ReleaseButton();" onmouseout="ReleaseButton();" >
		<rect id="button" x="25" y="250" rx="10" ry="10" width="200" height="30" style="stroke:none; fill:url(#buttonGradient);" />
		<text x="125" y="270" style="text-anchor:middle; font-size:20; font-family:Comic Sans MS;" >Reset</text>
	</a>
</svg>

